<svg xmlns="http://www.w3.org/2000/svg" xmlns:xlink="http://www.w3.org/1999/xlink" xml:space="preserve" style="shape-rendering:geometricPrecision;text-rendering:geometricPrecision;image-rendering:optimizeQuality;" viewBox="0 0 20.1028 13.9945" x="0px" y="0px" fill-rule="evenodd" clip-rule="evenodd"><defs><style type="text/css">
   
    .fil0 {fill:black}
   
  </style></defs><g><polygon class="fil0" points="2.678,3.7351 17.3728,3.7351 17.3728,4.0942 2.678,4.0942 "/><polygon class="fil0" points="2.678,4.2481 17.3728,4.2481 17.3728,5.4386 11.5442,5.4386 11.5442,10.7542 12.0777,10.7542 12.0777,11.1956 7.973,11.1956 7.973,10.7542 8.5065,10.7542 8.5065,5.4386 2.678,5.4386 "/><path class="fil0" d="M18.6251 6.1981l-6.0747 0c0,1.646 -0.0196,3.3266 -0.0207,4.9975l1.0262 0 0 -3.4174 5.0692 0 0 3.4174 1.4777 0 0 -11.1956 -1.4777 0 0 6.1981z"/><path class="fil0" d="M1.4777 6.1981l6.0747 0c0,1.646 0.0197,3.3266 0.0207,4.9975l-1.0261 0 0 -3.4174 -5.0693 0 0 3.4174 -1.4777 0 0 -11.1956 1.4777 0 0 6.1981z"/></g><text x="0" y="26.1956" fill="#000000" font-size="5px" font-weight="bold" font-family="'Helvetica Neue', Helvetica, Arial-Unicode, Arial, Sans-serif">Created by RODREGURS</text><text x="0" y="31.1956" fill="#000000" font-size="5px" font-weight="bold" font-family="'Helvetica Neue', Helvetica, Arial-Unicode, Arial, Sans-serif">from the Noun Project</text></svg>